<svg width="20" height="20" fill="none" xmlns="http://www.w3.org/2000/svg"><path d="M10 0C4.477 0 0 4.477 0 10s4.477 10 10 10 10-4.477 10-10S15.523 0 10 0Z" fill="url(#a)"/><path d="M15.379 7.326a2.827 2.827 0 0 1-2.827-2.827h-2.02v7.908a1.717 1.717 0 1 1-1.232-1.65V8.796a3.645 3.645 0 1 0 3.158 3.612l.058-3.997c.83.609 1.833.937 2.862.935v-2.02Z" fill="url(#b)"/><path d="M14.847 6.775a2.827 2.827 0 0 1-2.826-2.827H10v7.908a1.717 1.717 0 1 1-1.232-1.649V8.244a3.645 3.645 0 1 0 3.158 3.612l.058-3.997c.83.61 1.833.937 2.862.935V6.775Z" fill="url(#c)"/><path d="M14.844 7.275a2.827 2.827 0 0 1-1.743-1.1 2.826 2.826 0 0 1-1.03-1.676h-1.54v7.908a1.72 1.72 0 0 1-3.189.891 1.72 1.72 0 0 1 1.424-3.09V8.763a3.645 3.645 0 0 0-2.822 5.892 3.645 3.645 0 0 0 5.98-2.798l.058-3.997c.83.609 1.833.937 2.862.935v-1.52Z" fill="url(#d)"/><defs><linearGradient id="a" x1="9.948" y1="30.053" x2="29.95" y2="10.052" gradientUnits="userSpaceOnUse"><stop stop-color="#111"/><stop offset="1" stop-color="#323232"/></linearGradient><linearGradient id="b" x1="9.69" y1="19.478" x2="18.982" y2="12.22" gradientUnits="userSpaceOnUse"><stop stop-color="#B5053C"/><stop offset=".233" stop-color="#C90441"/><stop offset=".737" stop-color="#F0014B"/><stop offset="1" stop-color="#FF004F"/></linearGradient><linearGradient id="c" x1="9.231" y1="19.306" x2="19.02" y2="11.66" gradientUnits="userSpaceOnUse"><stop stop-color="#00B2C9"/><stop offset=".283" stop-color="#00C8D4"/><stop offset=".741" stop-color="#00E6E4"/><stop offset="1" stop-color="#00F1EA"/></linearGradient><linearGradient id="d" x1="8.973" y1="30.936" x2="30.708" y2="14.126" gradientUnits="userSpaceOnUse"><stop stop-color="#DDE3E4"/><stop offset="1" stop-color="#FCF7F7"/></linearGradient></defs></svg>